<svg width="50" height="50" viewBox="0 0 50 50" fill="none" xmlns="http://www.w3.org/2000/svg">
<path d="M25.1561 35.4688C25.6422 35.4688 26.0328 35.3213 26.328 35.0261C26.6231 34.731 26.7707 34.3404 26.7707 33.8542V26.823H33.9061C34.3575 26.823 34.7307 26.6667 35.0259 26.3542C35.321 26.0417 35.4686 25.6598 35.4686 25.2084C35.4686 24.7223 35.321 24.3317 35.0259 24.0365C34.7307 23.7414 34.3401 23.5938 33.854 23.5938H26.7707V16.0938C26.7707 15.6424 26.6144 15.2692 26.3019 14.974C25.9894 14.6789 25.6075 14.5313 25.1561 14.5313C24.67 14.5313 24.2793 14.6789 23.9842 14.974C23.6891 15.2692 23.5415 15.6598 23.5415 16.1459V23.5938H16.0936C15.6422 23.5938 15.2689 23.7501 14.9738 24.0626C14.6787 24.3751 14.5311 24.757 14.5311 25.2084C14.5311 25.6945 14.6787 26.0851 14.9738 26.3803C15.2689 26.6754 15.6596 26.823 16.1457 26.823H23.5415V33.9063C23.5415 34.3577 23.6978 34.731 24.0103 35.0261C24.3228 35.3213 24.7047 35.4688 25.1561 35.4688ZM24.9998 46.1459C22.0137 46.1459 19.2273 45.6077 16.6405 44.5313C14.0537 43.4549 11.8141 41.9706 9.92171 40.0782C8.02935 38.1858 6.54498 35.9463 5.46859 33.3595C4.3922 30.7727 3.854 27.9862 3.854 25.0001C3.854 22.0487 4.3922 19.2796 5.46859 16.6928C6.54498 14.106 8.02935 11.8664 9.92171 9.97404C11.8141 8.08168 14.0537 6.58862 16.6405 5.49487C19.2273 4.40112 22.0137 3.85425 24.9998 3.85425C27.9512 3.85425 30.7203 4.40112 33.3071 5.49487C35.8939 6.58862 38.1335 8.08168 40.0259 9.97404C41.9182 11.8664 43.4113 14.0973 44.505 16.6667C45.5988 19.2362 46.1457 22.014 46.1457 25.0001C46.1457 27.9862 45.5988 30.7727 44.505 33.3595C43.4113 35.9463 41.9182 38.1858 40.0259 40.0782C38.1335 41.9706 35.8939 43.4549 33.3071 44.5313C30.7203 45.6077 27.9512 46.1459 24.9998 46.1459ZM24.9998 42.6042C29.8262 42.6042 33.9668 40.8855 37.4217 37.448C40.8766 34.0105 42.604 29.8612 42.604 25.0001C42.604 20.1737 40.8766 16.0331 37.4217 12.5782C33.9668 9.12335 29.8262 7.39591 24.9998 7.39591C20.1734 7.39591 16.0328 9.12335 12.578 12.5782C9.1231 16.0331 7.39567 20.1737 7.39567 25.0001C7.39567 29.8612 9.1231 34.0105 12.578 37.448C16.0328 40.8855 20.1734 42.6042 24.9998 42.6042Z" fill="white"/>
</svg>
