<svg width="50" height="50" viewBox="0 0 50 50" fill="none" xmlns="http://www.w3.org/2000/svg">
<path d="M42.4478 41.7708H29.479V42.8124C29.479 43.7499 29.1491 44.5485 28.4894 45.2083C27.8297 45.868 27.0137 46.1978 26.0415 46.1978H7.55192C6.5797 46.1978 5.74636 45.8506 5.05192 45.1562C4.35748 44.4617 4.01025 43.6284 4.01025 42.6562V9.63534C4.01025 8.62839 4.35748 7.7777 5.05192 7.08325C5.74636 6.38881 6.5797 6.04159 7.55192 6.04159H10.5728V3.85409C10.5728 3.26381 10.7724 2.76902 11.1717 2.36971C11.571 1.9704 12.0658 1.77075 12.6561 1.77075H20.9894C21.5797 1.77075 22.0745 1.9704 22.4738 2.36971C22.8731 2.76902 23.0728 3.26381 23.0728 3.85409V6.04159H26.0415C27.0137 6.04159 27.8297 6.38013 28.4894 7.05721C29.1491 7.73429 29.479 8.54159 29.479 9.47909V10.5208H42.4478C43.42 10.5208 44.2533 10.868 44.9478 11.5624C45.6422 12.2569 45.9894 13.0902 45.9894 14.0624V38.177C45.9894 39.184 45.6422 40.0346 44.9478 40.7291C44.2533 41.4235 43.42 41.7708 42.4478 41.7708ZM42.5519 38.3333V13.9062H26.0415V9.47909H7.44775V42.8124H26.0415V38.3333H42.5519ZM19.9478 35.2083H23.0728V32.0833H19.9478V35.2083ZM19.9478 20.1562H23.0728V17.0312H19.9478V20.1562ZM28.1248 35.2083H31.2498V32.0833H28.1248V35.2083ZM28.1248 20.1562H31.2498V17.0312H28.1248V20.1562ZM36.3019 35.2083H39.4269V32.0833H36.3019V35.2083ZM36.3019 20.1562H39.4269V17.0312H36.3019V20.1562ZM7.44775 9.47909V42.8124V9.47909V9.47909Z" fill="white"/>
</svg>
