<svg width="50" height="50" viewBox="0 0 50 50" fill="none" xmlns="http://www.w3.org/2000/svg">
<path d="M16.1457 33.8542C16.4582 34.2015 16.8314 34.3751 17.2655 34.3751C17.6995 34.3751 18.0901 34.2015 18.4373 33.8542L24.9998 27.2917L31.6144 33.9063C31.9269 34.2188 32.3089 34.3664 32.7603 34.349C33.2116 34.3317 33.5762 34.1667 33.854 33.8542C34.2012 33.5417 34.3748 33.1685 34.3748 32.7345C34.3748 32.3004 34.2012 31.9098 33.854 31.5626L27.2915 25.0001L33.9061 18.3855C34.2186 18.073 34.3662 17.6911 34.3488 17.2397C34.3314 16.7883 34.1665 16.4237 33.854 16.1459C33.5415 15.7987 33.1682 15.6251 32.7342 15.6251C32.3002 15.6251 31.9096 15.7987 31.5623 16.1459L24.9998 22.7084L18.3853 16.0938C18.0728 15.7813 17.6908 15.6338 17.2394 15.6511C16.788 15.6685 16.4234 15.8334 16.1457 16.1459C15.7984 16.4584 15.6248 16.8317 15.6248 17.2657C15.6248 17.6997 15.7984 18.0904 16.1457 18.4376L22.7082 25.0001L16.0936 31.6147C15.7811 31.9272 15.6335 32.3091 15.6509 32.7605C15.6682 33.2119 15.8332 33.5765 16.1457 33.8542V33.8542ZM24.9998 46.1459C22.0137 46.1459 19.2273 45.6077 16.6405 44.5313C14.0537 43.4549 11.8141 41.9706 9.92171 40.0782C8.02935 38.1858 6.54498 35.9463 5.46859 33.3595C4.3922 30.7727 3.854 27.9862 3.854 25.0001C3.854 22.0487 4.3922 19.2796 5.46859 16.6928C6.54498 14.106 8.02935 11.8664 9.92171 9.97404C11.8141 8.08168 14.0537 6.58862 16.6405 5.49487C19.2273 4.40112 22.0137 3.85425 24.9998 3.85425C27.9512 3.85425 30.7203 4.40112 33.3071 5.49487C35.8939 6.58862 38.1335 8.08168 40.0259 9.97404C41.9182 11.8664 43.4113 14.106 44.505 16.6928C45.5988 19.2796 46.1457 22.0487 46.1457 25.0001C46.1457 27.9862 45.5988 30.7727 44.505 33.3595C43.4113 35.9463 41.9182 38.1858 40.0259 40.0782C38.1335 41.9706 35.8939 43.4549 33.3071 44.5313C30.7203 45.6077 27.9512 46.1459 24.9998 46.1459ZM24.9998 42.6042C29.8262 42.6042 33.9668 40.8855 37.4217 37.448C40.8766 34.0105 42.604 29.8612 42.604 25.0001C42.604 20.1737 40.8766 16.0331 37.4217 12.5782C33.9668 9.12335 29.8262 7.39591 24.9998 7.39591C20.1734 7.39591 16.0328 9.12335 12.578 12.5782C9.1231 16.0331 7.39567 20.1737 7.39567 25.0001C7.39567 29.8612 9.1231 34.0105 12.578 37.448C16.0328 40.8855 20.1734 42.6042 24.9998 42.6042Z" fill="white"/>
</svg>
