<svg width="50" height="50" viewBox="0 0 50 50" fill="none" xmlns="http://www.w3.org/2000/svg">
<path d="M24.9998 27.5001L14.2186 38.2813C13.8714 38.6286 13.4547 38.8022 12.9686 38.8022C12.4825 38.8022 12.0658 38.6286 11.7186 38.2813C11.3714 37.9341 11.1978 37.5174 11.1978 37.0313C11.1978 36.5452 11.3714 36.1286 11.7186 35.7813L22.4998 25.0001L11.7186 14.2188C11.3714 13.8716 11.1978 13.4549 11.1978 12.9688C11.1978 12.4827 11.3714 12.0661 11.7186 11.7188C12.0658 11.3716 12.4825 11.198 12.9686 11.198C13.4547 11.198 13.8714 11.3716 14.2186 11.7188L24.9998 22.5001L35.7811 11.7188C36.1283 11.3716 36.545 11.198 37.0311 11.198C37.5172 11.198 37.9339 11.3716 38.2811 11.7188C38.6283 12.0661 38.8019 12.4827 38.8019 12.9688C38.8019 13.4549 38.6283 13.8716 38.2811 14.2188L27.4998 25.0001L38.2811 35.7813C38.6283 36.1286 38.8019 36.5452 38.8019 37.0313C38.8019 37.5174 38.6283 37.9341 38.2811 38.2813C37.9339 38.6286 37.5172 38.8022 37.0311 38.8022C36.545 38.8022 36.1283 38.6286 35.7811 38.2813L24.9998 27.5001Z" fill="white"/>
</svg>
