<svg width="50" height="50" viewBox="0 0 50 50" fill="none" xmlns="http://www.w3.org/2000/svg">
<path d="M10.2606 44.375C9.77447 44.375 9.3578 44.2014 9.01058 43.8542C8.66336 43.5069 8.48975 43.0903 8.48975 42.6042V40.3125H7.81266C6.146 40.3125 4.72238 39.7222 3.54183 38.5417C2.36127 37.3611 1.771 35.9375 1.771 34.2708V21.5625C1.771 19.7569 2.30919 18.3767 3.38558 17.4219C4.46197 16.467 5.72933 15.9549 7.18766 15.8854V11.6667C7.18766 10 7.72586 8.62847 8.80225 7.55208C9.87863 6.47569 11.2502 5.9375 12.9168 5.9375H37.1356C38.8022 5.9375 40.1651 6.47569 41.2241 7.55208C42.2831 8.62847 42.8127 10 42.8127 11.6667V15.8854C44.271 15.9549 45.5384 16.467 46.6147 17.4219C47.6911 18.3767 48.2293 19.7569 48.2293 21.5625V34.2708C48.2293 35.9375 47.639 37.3611 46.4585 38.5417C45.2779 39.7222 43.8543 40.3125 42.1877 40.3125H41.5106V42.6042C41.5106 43.0903 41.337 43.5069 40.9897 43.8542C40.6425 44.2014 40.2259 44.375 39.7397 44.375C39.2536 44.375 38.837 44.2014 38.4897 43.8542C38.1425 43.5069 37.9689 43.0903 37.9689 42.6042V40.3125H12.0314V42.6042C12.0314 43.0903 11.8578 43.5069 11.5106 43.8542C11.1634 44.2014 10.7467 44.375 10.2606 44.375V44.375ZM7.81266 36.7187H42.1877C42.8474 36.7187 43.4203 36.4757 43.9064 35.9896C44.3925 35.5035 44.6356 34.9306 44.6356 34.2708V21.5625C44.6356 20.9028 44.4446 20.3819 44.0627 20C43.6807 19.6181 43.1599 19.4271 42.5002 19.4271C41.8404 19.4271 41.3196 19.6181 40.9377 20C40.5557 20.3819 40.3647 20.9028 40.3647 21.5625V30.8854H9.63558V21.5625C9.63558 20.9028 9.44461 20.3819 9.06266 20C8.68072 19.6181 8.15988 19.4271 7.50016 19.4271C6.84044 19.4271 6.31961 19.6181 5.93766 20C5.55572 20.3819 5.36475 20.9028 5.36475 21.5625V34.2708C5.36475 34.9306 5.6078 35.5035 6.09391 35.9896C6.58002 36.4757 7.15294 36.7187 7.81266 36.7187ZM13.2293 27.2917H36.771V21.5625C36.771 20.4514 37.0314 19.5139 37.5522 18.75C38.0731 17.9861 38.6286 17.3785 39.2189 16.9271V11.6667C39.2189 11.0069 39.0279 10.4861 38.646 10.1042C38.264 9.72222 37.7432 9.53125 37.0835 9.53125H12.9168C12.2571 9.53125 11.7363 9.72222 11.3543 10.1042C10.9724 10.4861 10.7814 11.0069 10.7814 11.6667V16.9271C11.3717 17.3785 11.9272 17.9861 12.4481 18.75C12.9689 19.5139 13.2293 20.4514 13.2293 21.5625V27.2917Z" fill="white"/>
</svg>
