<svg width="50" height="50" viewBox="0 0 50 50" fill="none" xmlns="http://www.w3.org/2000/svg">
<path d="M19.6877 36.7708C19.4446 36.7708 19.2276 36.7274 19.0366 36.6406C18.8456 36.5538 18.646 36.4236 18.4377 36.25L9.01058 26.8229C8.66336 26.4757 8.48975 26.0417 8.48975 25.5208C8.48975 25 8.66336 24.566 9.01058 24.2187C9.3578 23.8715 9.77447 23.6979 10.2606 23.6979C10.7467 23.6979 11.1634 23.8715 11.5106 24.2187L19.6877 32.3958L38.4377 13.6458C38.7849 13.2986 39.2015 13.125 39.6877 13.125C40.1738 13.125 40.6078 13.2986 40.9897 13.6458C41.337 13.9931 41.5106 14.4184 41.5106 14.9219C41.5106 15.4253 41.337 15.8507 40.9897 16.1979L20.9377 36.25C20.7293 36.4236 20.5297 36.5538 20.3387 36.6406C20.1477 36.7274 19.9307 36.7708 19.6877 36.7708V36.7708Z" fill="white"/>
</svg>
