<svg width="50" height="50" viewBox="0 0 50 50" fill="none" xmlns="http://www.w3.org/2000/svg">
<path d="M13.4894 44.0624C12.5172 44.0624 11.6839 43.7065 10.9894 42.9947C10.295 42.2829 9.94775 41.4583 9.94775 40.5208V11.0416H9.37484C8.854 11.0416 8.42866 10.868 8.0988 10.5208C7.76893 10.1735 7.604 9.75686 7.604 9.27075C7.604 8.74992 7.76893 8.32457 8.0988 7.99471C8.42866 7.66485 8.854 7.49992 9.37484 7.49992H17.9165C17.9165 6.97909 18.0901 6.54506 18.4373 6.19784C18.7846 5.85061 19.2012 5.677 19.6873 5.677H30.3123C30.7984 5.677 31.2151 5.85061 31.5623 6.19784C31.9096 6.54506 32.0832 6.97909 32.0832 7.49992H40.6248C41.1457 7.49992 41.571 7.67353 41.9009 8.02075C42.2307 8.36797 42.3957 8.78464 42.3957 9.27075C42.3957 9.79159 42.2307 10.2169 41.9009 10.5468C41.571 10.8767 41.1457 11.0416 40.6248 11.0416H40.0519V40.5208C40.0519 41.4583 39.7047 42.2829 39.0103 42.9947C38.3158 43.7065 37.4825 44.0624 36.5103 44.0624H13.4894ZM13.4894 11.0416V40.5208H36.5103V11.0416H13.4894ZM18.9582 34.4791C18.9582 34.9305 19.1231 35.3211 19.453 35.651C19.7828 35.9808 20.1734 36.1458 20.6248 36.1458C21.1109 36.1458 21.5103 35.9808 21.8228 35.651C22.1353 35.3211 22.2915 34.9305 22.2915 34.4791V17.0312C22.2915 16.5798 22.1266 16.1892 21.7967 15.8593C21.4668 15.5294 21.0762 15.3645 20.6248 15.3645C20.1387 15.3645 19.7394 15.5294 19.4269 15.8593C19.1144 16.1892 18.9582 16.5798 18.9582 17.0312V34.4791ZM27.7082 34.4791C27.7082 34.9305 27.8731 35.3211 28.203 35.651C28.5328 35.9808 28.9234 36.1458 29.3748 36.1458C29.8609 36.1458 30.2603 35.9808 30.5728 35.651C30.8853 35.3211 31.0415 34.9305 31.0415 34.4791V17.0312C31.0415 16.5798 30.8853 16.1892 30.5728 15.8593C30.2603 15.5294 29.8609 15.3645 29.3748 15.3645C28.8887 15.3645 28.4894 15.5294 28.1769 15.8593C27.8644 16.1892 27.7082 16.5798 27.7082 17.0312V34.4791ZM13.4894 11.0416V40.5208V11.0416V11.0416Z" fill="white"/>
</svg>
