<svg width="50" height="50" viewBox="0 0 50 50" fill="none" xmlns="http://www.w3.org/2000/svg">
<path d="M25.0002 31.6147C24.7572 31.6147 24.5402 31.5713 24.3492 31.4845C24.1582 31.3977 23.9586 31.2675 23.7502 31.0938L13.4377 20.7813C13.1252 20.4341 12.9777 20.0001 12.995 19.4793C13.0124 18.9584 13.1773 18.5418 13.4898 18.2293C13.8718 17.8473 14.2971 17.6824 14.7659 17.7345C15.2346 17.7866 15.6426 17.9688 15.9898 18.2813L25.0002 27.2918L34.0106 18.2813C34.3231 17.9688 34.7485 17.7952 35.2867 17.7605C35.8249 17.7258 36.2502 17.8994 36.5627 18.2813C36.9447 18.5938 37.1096 19.0018 37.0575 19.5053C37.0054 20.0088 36.8231 20.4515 36.5106 20.8334L26.2502 31.0938C26.0419 31.2675 25.8422 31.3977 25.6513 31.4845C25.4603 31.5713 25.2433 31.6147 25.0002 31.6147V31.6147Z" fill="white"/>
</svg>
