<svg width="50" height="50" viewBox="0 0 50 50" fill="none" xmlns="http://www.w3.org/2000/svg">
<path d="M32.8125 28.0208L30.1042 25.3124C30.9722 23.0902 30.5642 21.2499 28.8802 19.7916C27.1962 18.3333 25.4167 17.986 23.5417 18.7499L20.9375 16.1458C21.5278 15.7985 22.1701 15.5381 22.8646 15.3645C23.559 15.1909 24.2708 15.1041 25 15.1041C27.4653 15.1041 29.5573 15.9635 31.276 17.6822C32.9948 19.401 33.8542 21.493 33.8542 23.9583C33.8542 24.6874 33.7674 25.4166 33.5937 26.1458C33.4201 26.8749 33.1597 27.4999 32.8125 28.0208V28.0208ZM39.7917 34.9999L37.5 32.7083C39.1667 31.4583 40.6163 30.078 41.849 28.5676C43.0816 27.0572 44.0104 25.5208 44.6354 23.9583C42.8646 20.1041 40.2517 17.0572 36.7969 14.8176C33.342 12.578 29.5833 11.4583 25.5208 11.4583C24.0625 11.4583 22.5868 11.5971 21.0937 11.8749C19.6007 12.1527 18.4375 12.4652 17.6042 12.8124L15 10.1041C16.2153 9.54853 17.7778 9.06242 19.6875 8.64575C21.5972 8.22909 23.4549 8.02075 25.2604 8.02075C29.9479 8.02075 34.2969 9.31416 38.3073 11.901C42.3177 14.4878 45.3993 17.986 47.5521 22.3958C47.6563 22.6041 47.7257 22.8471 47.7604 23.1249C47.7951 23.4027 47.8125 23.6805 47.8125 23.9583C47.8125 24.236 47.7951 24.5225 47.7604 24.8176C47.7257 25.1128 47.6563 25.3471 47.5521 25.5208C46.6146 27.4305 45.4948 29.1839 44.1927 30.7812C42.8906 32.3784 41.4236 33.7846 39.7917 34.9999ZM41.1979 45.5728L33.8021 38.3333C32.5868 38.8194 31.2153 39.2013 29.6875 39.4791C28.1597 39.7569 26.5972 39.8958 25 39.8958C20.1736 39.8958 15.7465 38.6024 11.7187 36.0155C7.69097 33.4287 4.60069 29.9131 2.44792 25.4687C2.34375 25.2603 2.27431 25.026 2.23958 24.7655C2.20486 24.5051 2.1875 24.236 2.1875 23.9583C2.1875 23.6805 2.21354 23.394 2.26563 23.0989C2.31771 22.8037 2.37847 22.552 2.44792 22.3437C3.17708 20.8159 4.1059 19.3228 5.23438 17.8645C6.36285 16.4062 7.67361 14.9999 9.16667 13.6458L3.80208 8.28117C3.48958 7.96867 3.33333 7.5954 3.33333 7.16138C3.33333 6.72735 3.48958 6.35409 3.80208 6.04159C4.11458 5.69436 4.50521 5.52075 4.97396 5.52075C5.44271 5.52075 5.83333 5.69436 6.14583 6.04159L43.4896 43.3333C43.7674 43.6458 43.9063 44.0103 43.9063 44.427C43.9063 44.8437 43.7674 45.2083 43.4896 45.5208C43.1771 45.9027 42.7951 46.0937 42.3438 46.0937C41.8924 46.0937 41.5104 45.9201 41.1979 45.5728V45.5728ZM11.5104 16.0416C10.2604 16.9791 9.05382 18.1944 7.89062 19.6874C6.72743 21.1805 5.86806 22.6041 5.3125 23.9583C7.11806 27.8124 9.79167 30.8593 13.3333 33.0989C16.875 35.3385 20.9028 36.4583 25.4167 36.4583C26.5278 36.4583 27.6215 36.3888 28.6979 36.2499C29.7743 36.111 30.5903 35.9027 31.1458 35.6249L27.8125 32.2916C27.4653 32.4652 27.0226 32.5954 26.4844 32.6822C25.9462 32.769 25.4514 32.8124 25 32.8124C22.5694 32.8124 20.4861 31.9617 18.75 30.2603C17.0139 28.5589 16.1458 26.4583 16.1458 23.9583C16.1458 23.4721 16.1892 22.9774 16.276 22.4739C16.3628 21.9704 16.4757 21.5277 16.6146 21.1458L11.5104 16.0416Z" fill="white"/>
</svg>
