<svg width="50" height="50" viewBox="0 0 50 50" fill="none" xmlns="http://www.w3.org/2000/svg">
<path d="M25 32.8124C27.4653 32.8124 29.5573 31.953 31.276 30.2343C32.9948 28.5155 33.8542 26.4235 33.8542 23.9583C33.8542 21.493 32.9948 19.401 31.276 17.6822C29.5573 15.9635 27.4653 15.1041 25 15.1041C22.5347 15.1041 20.4427 15.9635 18.724 17.6822C17.0052 19.401 16.1458 21.493 16.1458 23.9583C16.1458 26.4235 17.0052 28.5155 18.724 30.2343C20.4427 31.953 22.5347 32.8124 25 32.8124ZM25 29.5833C23.4375 29.5833 22.1094 29.0364 21.0156 27.9426C19.9219 26.8489 19.375 25.5208 19.375 23.9583C19.375 22.3958 19.9219 21.0676 21.0156 19.9739C22.1094 18.8801 23.4375 18.3333 25 18.3333C26.5625 18.3333 27.8906 18.8801 28.9844 19.9739C30.0781 21.0676 30.625 22.3958 30.625 23.9583C30.625 25.5208 30.0781 26.8489 28.9844 27.9426C27.8906 29.0364 26.5625 29.5833 25 29.5833ZM25 39.8958C20.1736 39.8958 15.7639 38.5763 11.7708 35.9374C7.77778 33.2985 4.70486 29.8089 2.55208 25.4687C2.41319 25.2951 2.31771 25.0694 2.26563 24.7916C2.21354 24.5138 2.1875 24.236 2.1875 23.9583C2.1875 23.6805 2.21354 23.4027 2.26563 23.1249C2.31771 22.8471 2.41319 22.6041 2.55208 22.3958C4.70486 18.0902 7.77778 14.618 11.7708 11.9791C15.7639 9.3402 20.1736 8.02075 25 8.02075C29.8264 8.02075 34.2361 9.3402 38.2292 11.9791C42.2222 14.618 45.2951 18.0902 47.4479 22.3958C47.5868 22.6041 47.6823 22.8471 47.7344 23.1249C47.7865 23.4027 47.8125 23.6805 47.8125 23.9583C47.8125 24.236 47.7865 24.5138 47.7344 24.7916C47.6823 25.0694 47.5868 25.2951 47.4479 25.4687C45.2951 29.8089 42.2222 33.2985 38.2292 35.9374C34.2361 38.5763 29.8264 39.8958 25 39.8958V39.8958ZM25 36.4583C29.2014 36.4583 33.0642 35.3211 36.5885 33.0468C40.1128 30.7725 42.7951 27.743 44.6354 23.9583C42.7951 20.1735 40.1128 17.144 36.5885 14.8697C33.0642 12.5954 29.2014 11.4583 25 11.4583C20.7986 11.4583 16.9358 12.5954 13.4115 14.8697C9.88715 17.144 7.1875 20.1735 5.3125 23.9583C7.1875 27.743 9.88715 30.7725 13.4115 33.0468C16.9358 35.3211 20.7986 36.4583 25 36.4583Z" fill="white"/>
</svg>
