<svg width="50" height="50" viewBox="0 0 50 50" fill="none" xmlns="http://www.w3.org/2000/svg">
<path d="M22.5519 42.0312L19.7915 39.4791C15.4859 35.486 11.7533 31.6666 8.59359 28.0208C5.43387 24.3749 3.854 20.5381 3.854 16.5103C3.854 13.2812 4.93039 10.5902 7.08317 8.43742C9.23595 6.28464 11.9096 5.20825 15.104 5.20825C16.8748 5.20825 18.6196 5.61624 20.3384 6.43221C22.0571 7.24818 23.6109 8.61103 24.9998 10.5208C26.5276 8.61103 28.1075 7.24818 29.7394 6.43221C31.3714 5.61624 33.0901 5.20825 34.8957 5.20825C38.0901 5.20825 40.7637 6.28464 42.9165 8.43742C45.0693 10.5902 46.1457 13.2812 46.1457 16.5103C46.1457 20.5381 44.5571 24.3749 41.38 28.0208C38.203 31.6666 34.479 35.486 30.2082 39.4791L27.4478 42.0312C26.7533 42.6562 25.9373 42.9687 24.9998 42.9687C24.0623 42.9687 23.2464 42.6562 22.5519 42.0312ZM23.5936 14.4791C22.6908 12.8124 21.4669 11.4409 19.9217 10.3645C18.3766 9.28811 16.7707 8.74992 15.104 8.74992C12.8471 8.74992 10.9981 9.47909 9.55713 10.9374C8.11616 12.3958 7.39567 14.2534 7.39567 16.5103C7.39567 18.5242 8.07275 20.6249 9.42692 22.8124C10.7811 24.9999 12.387 27.1267 14.2446 29.1926C16.1023 31.2586 18.0294 33.1857 20.0259 34.9739L24.9998 39.427L29.9738 34.9739C31.9703 33.1857 33.8974 31.2499 35.755 29.1666C37.6127 27.0833 39.2186 24.9478 40.5728 22.7603C41.9269 20.5728 42.604 18.4895 42.604 16.5103C42.604 14.2534 41.8748 12.3958 40.4165 10.9374C38.9582 9.47909 37.1179 8.74992 34.8957 8.74992C33.1596 8.74992 31.5363 9.27943 30.0259 10.3385C28.5155 11.3975 27.2741 12.7777 26.3019 14.4791C26.1283 14.7569 25.9287 14.9652 25.703 15.1041C25.4773 15.243 25.2255 15.3124 24.9478 15.3124C24.6353 15.3124 24.3662 15.243 24.1405 15.1041C23.9148 14.9652 23.7325 14.7569 23.5936 14.4791V14.4791Z" fill="white"/>
</svg>
