<svg width="50" height="50" viewBox="0 0 50 50" fill="none" xmlns="http://www.w3.org/2000/svg">
<path d="M22.9167 41.9791C22.2569 41.9791 21.6927 41.7447 21.2239 41.276C20.7552 40.8072 20.5208 40.243 20.5208 39.5832V27.1874L8.12499 11.4062C7.56943 10.677 7.4913 9.93047 7.89061 9.16659C8.28992 8.4027 8.9236 8.02075 9.79165 8.02075H40.2083C41.0764 8.02075 41.7101 8.4027 42.1094 9.16659C42.5087 9.93047 42.4305 10.677 41.875 11.4062L29.4792 27.1874V39.6874C29.4792 40.3471 29.2621 40.894 28.8281 41.328C28.3941 41.7621 27.8472 41.9791 27.1875 41.9791H22.9167ZM25 27.0833L37.2396 11.5624H12.7604L25 27.0833Z" fill="white"/>
</svg>
