<svg width="50" height="50" viewBox="0 0 50 50" fill="none" xmlns="http://www.w3.org/2000/svg">
<path d="M11.5627 40.5208H19.0627V27.3958H30.9377V40.5208H38.4377V20.3646L25.0002 10.3125L11.5627 20.3646V40.5208ZM11.5627 44.0625C10.5904 44.0625 9.75711 43.7153 9.06266 43.0208C8.36822 42.3264 8.021 41.4931 8.021 40.5208V20.3646C8.021 19.809 8.14252 19.2795 8.38558 18.776C8.62864 18.2726 8.97586 17.8472 9.42725 17.5L22.8647 7.44792C23.1772 7.20486 23.5158 7.02257 23.8804 6.90104C24.245 6.77951 24.6182 6.71875 25.0002 6.71875C25.3821 6.71875 25.7554 6.77951 26.12 6.90104C26.4845 7.02257 26.8231 7.20486 27.1356 7.44792L40.5731 17.5C41.0245 17.8472 41.3717 18.2726 41.6147 18.776C41.8578 19.2795 41.9793 19.809 41.9793 20.3646V40.5208C41.9793 41.4931 41.6321 42.3264 40.9377 43.0208C40.2432 43.7153 39.4099 44.0625 38.4377 44.0625H27.5522V30.7812H22.4481V44.0625H11.5627Z" fill="white"/>
</svg>
