<svg width="50" height="50" viewBox="0 0 50 50" fill="none" xmlns="http://www.w3.org/2000/svg">
<path d="M25 24.5312C26.0069 24.5312 26.875 24.1666 27.6042 23.4374C28.3333 22.7083 28.6979 21.8402 28.6979 20.8333C28.6979 19.8263 28.3333 18.9583 27.6042 18.2291C26.875 17.4999 26.0069 17.1353 25 17.1353C23.9931 17.1353 23.125 17.4999 22.3958 18.2291C21.6667 18.9583 21.3021 19.8263 21.3021 20.8333C21.3021 21.8402 21.6667 22.7083 22.3958 23.4374C23.125 24.1666 23.9931 24.5312 25 24.5312ZM25 41.4062C29.5486 37.2742 32.908 33.5242 35.0781 30.1562C37.2483 26.7881 38.3333 23.8194 38.3333 21.2499C38.3333 17.2221 37.0486 13.9235 34.4792 11.3541C31.9097 8.78464 28.75 7.49992 25 7.49992C21.25 7.49992 18.0903 8.78464 15.5208 11.3541C12.9514 13.9235 11.6667 17.2221 11.6667 21.2499C11.6667 23.8194 12.7778 26.7881 15 30.1562C17.2222 33.5242 20.5556 37.2742 25 41.4062ZM25 45.3645C24.7569 45.3645 24.5139 45.3211 24.2708 45.2343C24.0278 45.1475 23.8021 45.0346 23.5938 44.8957C18.4201 40.3124 14.5486 36.0676 11.9792 32.1614C9.40972 28.2551 8.125 24.618 8.125 21.2499C8.125 15.9721 9.81771 11.7708 13.2031 8.64575C16.5885 5.52075 20.5208 3.95825 25 3.95825C29.4792 3.95825 33.4115 5.52075 36.7969 8.64575C40.1823 11.7708 41.875 15.9721 41.875 21.2499C41.875 24.618 40.5903 28.2551 38.0208 32.1614C35.4514 36.0676 31.5799 40.3124 26.4063 44.8957C26.1979 45.0346 25.9809 45.1475 25.7552 45.2343C25.5295 45.3211 25.2778 45.3645 25 45.3645Z" fill="white"/>
</svg>
