<svg width="50" height="50" viewBox="0 0 50 50" fill="none" xmlns="http://www.w3.org/2000/svg">
<path d="M33.4375 33.2812C33.0903 32.934 32.9167 32.5087 32.9167 32.0052C32.9167 31.5017 33.0903 31.0764 33.4375 30.7292L37.3958 26.7708H21.1458C20.6597 26.7708 20.2431 26.5972 19.8958 26.25C19.5486 25.9028 19.375 25.4861 19.375 25C19.375 24.4792 19.5486 24.0538 19.8958 23.724C20.2431 23.3941 20.6597 23.2292 21.1458 23.2292H37.2917L33.2813 19.2188C32.9688 18.9063 32.8125 18.5069 32.8125 18.0208C32.8125 17.5347 32.9861 17.1007 33.3333 16.7187C33.6806 16.3715 34.1059 16.1979 34.6094 16.1979C35.1128 16.1979 35.5382 16.3715 35.8854 16.7187L42.9688 23.8021C43.1424 24.0104 43.2726 24.2187 43.3594 24.4271C43.4462 24.6354 43.4896 24.8437 43.4896 25.0521C43.4896 25.2951 43.4462 25.5122 43.3594 25.7031C43.2726 25.8941 43.1424 26.0937 42.9688 26.3021L35.9375 33.3333C35.625 33.6458 35.2257 33.8021 34.7396 33.8021C34.2535 33.8021 33.8194 33.6285 33.4375 33.2812V33.2812ZM9.375 44.0625C8.40278 44.0625 7.56076 43.7066 6.84896 42.9948C6.13715 42.283 5.78125 41.4583 5.78125 40.5208V9.47917C5.78125 8.50694 6.13715 7.67361 6.84896 6.97917C7.56076 6.28472 8.40278 5.9375 9.375 5.9375H22.8125C23.3333 5.9375 23.7587 6.11111 24.0885 6.45833C24.4184 6.80556 24.5833 7.22222 24.5833 7.70833C24.5833 8.22917 24.4184 8.65451 24.0885 8.98438C23.7587 9.31424 23.3333 9.47917 22.8125 9.47917H9.375V40.5208H22.8125C23.3333 40.5208 23.7587 40.6944 24.0885 41.0417C24.4184 41.3889 24.5833 41.8056 24.5833 42.2917C24.5833 42.8125 24.4184 43.2378 24.0885 43.5677C23.7587 43.8976 23.3333 44.0625 22.8125 44.0625H9.375Z" fill="white"/>
</svg>
