<svg width="50" height="50" viewBox="0 0 50 50" fill="none" xmlns="http://www.w3.org/2000/svg">
<path d="M7.81234 37.8647C7.32623 37.8647 6.90956 37.6911 6.56234 37.3438C6.21512 36.9966 6.0415 36.5626 6.0415 36.0417C6.0415 35.5556 6.21512 35.1477 6.56234 34.8178C6.90956 34.4879 7.32623 34.323 7.81234 34.323H42.1873C42.6734 34.323 43.0901 34.4879 43.4373 34.8178C43.7846 35.1477 43.9582 35.573 43.9582 36.0938C43.9582 36.5799 43.7846 36.9966 43.4373 37.3438C43.0901 37.6911 42.6734 37.8647 42.1873 37.8647H7.81234ZM7.81234 26.7709C7.32623 26.7709 6.90956 26.5973 6.56234 26.2501C6.21512 25.9029 6.0415 25.4862 6.0415 25.0001C6.0415 24.4792 6.21512 24.0539 6.56234 23.724C6.90956 23.3942 7.32623 23.2292 7.81234 23.2292H42.1873C42.6734 23.2292 43.0901 23.4029 43.4373 23.7501C43.7846 24.0973 43.9582 24.514 43.9582 25.0001C43.9582 25.5209 43.7846 25.9463 43.4373 26.2761C43.0901 26.606 42.6734 26.7709 42.1873 26.7709H7.81234ZM7.81234 15.6772C7.32623 15.6772 6.90956 15.5122 6.56234 15.1824C6.21512 14.8525 6.0415 14.4272 6.0415 13.9063C6.0415 13.4202 6.21512 13.0036 6.56234 12.6563C6.90956 12.3091 7.32623 12.1355 7.81234 12.1355H42.1873C42.6734 12.1355 43.0901 12.3091 43.4373 12.6563C43.7846 13.0036 43.9582 13.4376 43.9582 13.9584C43.9582 14.4445 43.7846 14.8525 43.4373 15.1824C43.0901 15.5122 42.6734 15.6772 42.1873 15.6772H7.81234Z" fill="white"/>
</svg>
