<svg width="50" height="50" viewBox="0 0 50 50" fill="none" xmlns="http://www.w3.org/2000/svg">
<path d="M7.39567 8.02075L11.2498 15.9374H18.0207L14.1665 8.02075H18.8019L22.6561 15.9374H29.4269L25.5728 8.02075H30.2082L34.0623 15.9374H40.8332L36.979 8.02075H42.604C43.5762 8.02075 44.4096 8.36797 45.104 9.06242C45.7984 9.75686 46.1457 10.5902 46.1457 11.5624V38.4374C46.1457 39.3749 45.7984 40.1996 45.104 40.9114C44.4096 41.6232 43.5762 41.9791 42.604 41.9791H7.39567C6.45817 41.9791 5.63352 41.6319 4.92171 40.9374C4.20991 40.243 3.854 39.4096 3.854 38.4374V11.5624C3.854 10.5902 4.20991 9.75686 4.92171 9.06242C5.63352 8.36797 6.45817 8.02075 7.39567 8.02075V8.02075ZM7.39567 19.4791V38.4374H42.604V19.4791H7.39567ZM7.39567 19.4791V38.4374V19.4791Z" fill="white"/>
</svg>
