<svg width="50" height="50" viewBox="0 0 50 50" fill="none" xmlns="http://www.w3.org/2000/svg">
<path d="M9.58333 39.8437C9.0625 39.8437 8.63715 39.6787 8.30729 39.3489C7.97743 39.019 7.8125 38.5937 7.8125 38.0728C7.8125 37.552 7.97743 37.1267 8.30729 36.7968C8.63715 36.4669 9.0625 36.302 9.58333 36.302H12.2917V20.7291C12.2917 17.7777 13.1684 15.1128 14.9219 12.7343C16.6753 10.3558 18.9931 8.85409 21.875 8.22909V6.77075C21.875 5.93742 22.1788 5.23429 22.7865 4.66138C23.3941 4.08846 24.1319 3.802 25 3.802C25.8681 3.802 26.6059 4.08846 27.2135 4.66138C27.8212 5.23429 28.125 5.93742 28.125 6.77075V8.22909C31.0069 8.85409 33.3333 10.3558 35.1042 12.7343C36.875 15.1128 37.7604 17.7777 37.7604 20.7291V36.302H40.4167C40.9375 36.302 41.3715 36.4756 41.7187 36.8228C42.066 37.1701 42.2396 37.5867 42.2396 38.0728C42.2396 38.5937 42.066 39.019 41.7187 39.3489C41.3715 39.6787 40.9375 39.8437 40.4167 39.8437H9.58333ZM25 46.1458C23.8542 46.1458 22.8559 45.7291 22.0052 44.8958C21.1545 44.0624 20.7292 43.0555 20.7292 41.8749H29.2708C29.2708 43.0555 28.8542 44.0624 28.0208 44.8958C27.1875 45.7291 26.1806 46.1458 25 46.1458ZM15.8333 36.302H34.2187V20.7291C34.2187 18.1249 33.342 15.9287 31.5885 14.1405C29.8351 12.3523 27.6736 11.4583 25.1042 11.4583C22.5 11.4583 20.3038 12.3523 18.5156 14.1405C16.7274 15.9287 15.8333 18.1249 15.8333 20.7291V36.302Z" fill="white"/>
</svg>
