<svg width="50" height="50" viewBox="0 0 50 50" fill="none" xmlns="http://www.w3.org/2000/svg">
<path d="M41.4062 44.0625C37.1354 44.0625 32.8906 43.0122 28.6719 40.9115C24.4531 38.8108 20.6597 36.0764 17.2917 32.7083C13.9236 29.3403 11.1892 25.5382 9.08854 21.3021C6.98785 17.066 5.9375 12.8299 5.9375 8.59375C5.9375 7.82986 6.18924 7.19618 6.69271 6.69271C7.19618 6.18924 7.82986 5.9375 8.59375 5.9375H15.8854C16.4757 5.9375 16.9965 6.12847 17.4479 6.51042C17.8993 6.89236 18.1944 7.41319 18.3333 8.07292L19.7396 14.4792C19.8438 15.0694 19.8351 15.599 19.7135 16.0677C19.592 16.5365 19.3576 16.9271 19.0104 17.2396L13.75 22.4479C15.6597 25.5382 17.7691 28.2378 20.0781 30.5469C22.3872 32.8559 25 34.809 27.9167 36.4062L32.9687 31.25C33.3854 30.7986 33.8455 30.4861 34.349 30.3125C34.8524 30.1389 35.3819 30.1215 35.9375 30.2604L41.875 31.6146C42.5347 31.7535 43.0642 32.066 43.4635 32.5521C43.8628 33.0382 44.0625 33.6111 44.0625 34.2708V41.4062C44.0625 42.1354 43.8108 42.7604 43.3073 43.2812C42.8038 43.8021 42.1701 44.0625 41.4062 44.0625ZM11.9792 19.2188L16.1979 15.0521L15 9.47917H9.53125C9.49653 10.7986 9.67882 12.2396 10.0781 13.8021C10.4774 15.3646 11.1111 17.1701 11.9792 19.2188ZM40.5208 40.4687V34.9479L35.3125 33.8542L31.25 38.125C32.6042 38.7847 34.0972 39.3229 35.7292 39.7396C37.3611 40.1562 38.9583 40.3993 40.5208 40.4687V40.4687Z" fill="white"/>
</svg>
