<svg width="50" height="50" viewBox="0 0 50 50" fill="none" xmlns="http://www.w3.org/2000/svg">
<path d="M40.1562 42.7603L27.6562 30.3124C26.6493 31.1805 25.4514 31.8576 24.0625 32.3437C22.6736 32.8298 21.1979 33.0728 19.6354 33.0728C15.816 33.0728 12.5781 31.7534 9.92187 29.1145C7.26562 26.4756 5.9375 23.2812 5.9375 19.5312C5.9375 15.7812 7.26562 12.5867 9.92187 9.94784C12.5781 7.30895 15.7812 5.9895 19.5312 5.9895C23.2812 5.9895 26.4757 7.30895 29.1146 9.94784C31.7535 12.5867 33.0729 15.7812 33.0729 19.5312C33.0729 21.0242 32.8299 22.4652 32.3437 23.8541C31.8576 25.243 31.1458 26.5451 30.2083 27.7603L42.8125 40.2083C43.1597 40.5555 43.3333 40.9721 43.3333 41.4583C43.3333 41.9444 43.1424 42.3784 42.7604 42.7603C42.3785 43.1076 41.9358 43.2812 41.4323 43.2812C40.9288 43.2812 40.5035 43.1076 40.1562 42.7603V42.7603ZM19.5833 29.5312C22.3264 29.5312 24.6615 28.5503 26.5885 26.5885C28.5156 24.6267 29.4792 22.2742 29.4792 19.5312C29.4792 16.7881 28.5156 14.4357 26.5885 12.4739C24.6615 10.5121 22.3264 9.53117 19.5833 9.53117C16.7708 9.53117 14.3924 10.5121 12.4479 12.4739C10.5035 14.4357 9.53125 16.7881 9.53125 19.5312C9.53125 22.2742 10.5035 24.6267 12.4479 26.5885C14.3924 28.5503 16.7708 29.5312 19.5833 29.5312V29.5312Z" fill="white"/>
</svg>
