<svg width="50" height="50" viewBox="0 0 50 50" fill="none" xmlns="http://www.w3.org/2000/svg">
<path d="M28.4895 46.1459H21.5103C21.0589 46.1459 20.6596 46.007 20.3124 45.7292C19.9652 45.4515 19.7568 45.0869 19.6874 44.6355L18.8541 39.4792C18.2638 39.2709 17.6214 38.9671 16.927 38.5678C16.2325 38.1685 15.6249 37.7605 15.1041 37.3438L10.3645 39.5313C9.94781 39.7397 9.51378 39.7744 9.06239 39.6355C8.611 39.4966 8.28114 39.2188 8.07281 38.8022L4.53114 32.5001C4.28809 32.1181 4.22732 31.7101 4.34885 31.2761C4.47038 30.8421 4.70475 30.4862 5.05197 30.2084L9.47906 26.9792C9.40961 26.7015 9.36621 26.3716 9.34885 25.9897C9.33149 25.6077 9.32281 25.2779 9.32281 25.0001C9.32281 24.7223 9.33149 24.3924 9.34885 24.0105C9.36621 23.6286 9.40961 23.2987 9.47906 23.0209L5.05197 19.7917C4.70475 19.514 4.47038 19.1581 4.34885 18.724C4.22732 18.29 4.28809 17.882 4.53114 17.5001L8.07281 11.198C8.31586 10.7813 8.65441 10.5036 9.08843 10.3647C9.52246 10.2258 9.94781 10.2605 10.3645 10.4688L15.1561 12.6563C15.6423 12.2397 16.2325 11.8404 16.927 11.4584C17.6214 11.0765 18.2638 10.7813 18.8541 10.573L19.6874 5.31258C19.7568 4.89591 19.9652 4.54869 20.3124 4.27091C20.6596 3.99314 21.0589 3.85425 21.5103 3.85425H28.4895C28.9409 3.85425 29.3402 3.99314 29.6874 4.27091C30.0346 4.54869 30.2429 4.89591 30.3124 5.31258L31.1457 10.5209C31.736 10.764 32.387 11.0678 33.0988 11.4324C33.8107 11.797 34.4096 12.2049 34.8957 12.6563L39.6353 10.4688C40.052 10.2605 40.486 10.2258 40.9374 10.3647C41.3888 10.5036 41.7186 10.7813 41.927 11.198L45.4686 17.448C45.7117 17.8299 45.7811 18.2466 45.677 18.698C45.5728 19.1494 45.3298 19.514 44.9478 19.7917L40.5207 22.9167C40.5902 23.2292 40.6336 23.5765 40.6509 23.9584C40.6683 24.3404 40.677 24.6876 40.677 25.0001C40.677 25.3126 40.6683 25.6511 40.6509 26.0157C40.6336 26.3803 40.5902 26.7188 40.5207 27.0313L44.9478 30.2084C45.295 30.4862 45.5294 30.8421 45.6509 31.2761C45.7725 31.7101 45.7117 32.1181 45.4686 32.5001L41.927 38.8022C41.6839 39.2188 41.3454 39.4966 40.9114 39.6355C40.4773 39.7744 40.052 39.7397 39.6353 39.5313L34.8436 37.3438C34.3575 37.7605 33.7759 38.1772 33.0988 38.5938C32.4218 39.0105 31.7707 39.3056 31.1457 39.4792L30.3124 44.6355C30.2429 45.0869 30.0346 45.4515 29.6874 45.7292C29.3402 46.007 28.9409 46.1459 28.4895 46.1459V46.1459ZM24.9999 31.7709C26.8749 31.7709 28.4721 31.1112 29.7916 29.7917C31.111 28.4723 31.7707 26.8751 31.7707 25.0001C31.7707 23.1251 31.111 21.5279 29.7916 20.2084C28.4721 18.889 26.8749 18.2292 24.9999 18.2292C23.1249 18.2292 21.5277 18.889 20.2082 20.2084C18.8888 21.5279 18.2291 23.1251 18.2291 25.0001C18.2291 26.8751 18.8888 28.4723 20.2082 29.7917C21.5277 31.1112 23.1249 31.7709 24.9999 31.7709ZM24.9999 28.6459C23.9582 28.6459 23.0902 28.29 22.3957 27.5782C21.7013 26.8664 21.3541 26.007 21.3541 25.0001C21.3541 23.9931 21.7013 23.1338 22.3957 22.422C23.0902 21.7101 23.9582 21.3542 24.9999 21.3542C26.0068 21.3542 26.8662 21.7101 27.578 22.422C28.2898 23.1338 28.6457 23.9931 28.6457 25.0001C28.6457 26.007 28.2898 26.8664 27.578 27.5782C26.8662 28.29 26.0068 28.6459 24.9999 28.6459ZM22.8124 42.6042H27.1874L27.9166 36.7709C29.0624 36.4931 30.1561 36.0591 31.1978 35.4688C32.2395 34.8786 33.177 34.1494 34.0103 33.2813L39.5311 35.6772L41.5103 32.0834L36.6145 28.5417C36.7534 27.9515 36.8749 27.3612 36.9791 26.7709C37.0832 26.1806 37.1353 25.5904 37.1353 25.0001C37.1353 24.4098 37.0919 23.8195 37.0051 23.2292C36.9183 22.639 36.7881 22.0487 36.6145 21.4584L41.5103 17.9167L39.5311 14.323L34.0103 16.7188C33.2117 15.7813 32.3002 15.0001 31.2759 14.3751C30.2516 13.7501 29.1318 13.3681 27.9166 13.2292L27.1874 7.39591H22.8124L22.0832 13.2292C20.9027 13.4376 19.7916 13.8456 18.7499 14.4532C17.7082 15.0608 16.7707 15.8161 15.9374 16.7188L10.4686 14.323L8.48947 17.9167L13.3332 21.4584C13.1943 22.0487 13.0815 22.639 12.9947 23.2292C12.9079 23.8195 12.8645 24.4098 12.8645 25.0001C12.8645 25.5904 12.9079 26.1806 12.9947 26.7709C13.0815 27.3612 13.1943 27.9515 13.3332 28.5417L8.48947 32.0834L10.4686 35.6772L15.9374 33.2813C16.8054 34.1494 17.7603 34.8786 18.802 35.4688C19.8436 36.0591 20.9374 36.4931 22.0832 36.7709L22.8124 42.6042Z" fill="white"/>
</svg>
