<svg width="50" height="50" viewBox="0 0 50 50" fill="none" xmlns="http://www.w3.org/2000/svg">
<path d="M16.9792 39.0626L25 34.2709L33.0208 39.1147L30.8333 30.0522L37.8646 23.9584L28.5937 23.1251L25 14.5834L21.4062 23.073L12.1354 23.9063L19.1667 30.0001L16.9792 39.0626ZM25 38.4376L15.3125 44.2709C14.9653 44.4792 14.6181 44.5747 14.2708 44.5574C13.9236 44.54 13.6111 44.4272 13.3333 44.2188C13.0556 44.0105 12.8472 43.7501 12.7083 43.4376C12.5694 43.1251 12.5347 42.7779 12.6042 42.3959L15.2083 31.3022L6.61458 23.8542C6.30208 23.5765 6.11111 23.2727 6.04167 22.9428C5.97222 22.6129 5.98958 22.2744 6.09375 21.9272C6.16319 21.6147 6.33681 21.3456 6.61458 21.1199C6.89236 20.8942 7.22222 20.764 7.60417 20.7292L18.9583 19.7397L23.3333 9.323C23.5069 8.94105 23.75 8.66328 24.0625 8.48966C24.375 8.31605 24.6875 8.22925 25 8.22925C25.3125 8.22925 25.625 8.31605 25.9375 8.48966C26.25 8.66328 26.4931 8.94105 26.6667 9.323L31.0417 19.7397L42.3958 20.7292C42.7778 20.764 43.1076 20.8942 43.3854 21.1199C43.6632 21.3456 43.8368 21.6147 43.9063 21.9272C44.0104 22.2744 44.0278 22.6129 43.9583 22.9428C43.8889 23.2727 43.6979 23.5765 43.3854 23.8542L34.7917 31.3022L37.3958 42.3959C37.4653 42.7779 37.4306 43.1251 37.2917 43.4376C37.1528 43.7501 36.9444 44.0105 36.6667 44.2188C36.3889 44.4272 36.0764 44.54 35.7292 44.5574C35.3819 44.5747 35.0347 44.4792 34.6875 44.2709L25 38.4376Z" fill="white"/>
</svg>
