<svg width="50" height="50" viewBox="0 0 50 50" fill="none" xmlns="http://www.w3.org/2000/svg">
<path d="M11.5104 40.9897V42.2917C11.5104 42.7779 11.3542 43.1772 11.0417 43.4897C10.7292 43.8022 10.3299 43.9584 9.84375 43.9584C9.35764 43.9584 8.94965 43.7935 8.61979 43.4636C8.28993 43.1338 8.125 42.7258 8.125 42.2397V7.7605C8.125 7.27439 8.28993 6.8664 8.61979 6.53654C8.94965 6.20668 9.35764 6.04175 9.84375 6.04175C10.3299 6.04175 10.7292 6.20668 11.0417 6.53654C11.3542 6.8664 11.5104 7.27439 11.5104 7.7605V9.0105H17.6563V7.81258C17.6563 7.29175 17.8212 6.8664 18.151 6.53654C18.4809 6.20668 18.9063 6.04175 19.4271 6.04175H30.5729C31.0938 6.04175 31.5191 6.21536 31.849 6.56258C32.1788 6.9098 32.3438 7.32647 32.3438 7.81258V9.0105H38.4896V7.70841C38.4896 7.2223 38.6545 6.823 38.9844 6.5105C39.3142 6.198 39.7222 6.04175 40.2083 6.04175C40.6944 6.04175 41.0938 6.20668 41.4063 6.53654C41.7188 6.8664 41.875 7.27439 41.875 7.7605V42.2397C41.875 42.7258 41.7101 43.1338 41.3802 43.4636C41.0503 43.7935 40.6424 43.9584 40.1563 43.9584C39.6701 43.9584 39.2708 43.7935 38.9583 43.4636C38.6458 43.1338 38.4896 42.7258 38.4896 42.2397V40.9897H32.3438V42.1876C32.3438 42.7084 32.1788 43.1338 31.849 43.4636C31.5191 43.7935 31.0938 43.9584 30.5729 43.9584H19.4271C18.9063 43.9584 18.4809 43.7848 18.151 43.4376C17.8212 43.0904 17.6563 42.6737 17.6563 42.1876V40.9897H11.5104ZM11.5104 37.5522H17.6563V31.4584H11.5104V37.5522ZM11.5104 28.073H17.6563V21.9272H11.5104V28.073ZM11.5104 18.5417H17.6563V12.448H11.5104V18.5417ZM32.3438 37.5522H38.4896V31.4584H32.3438V37.5522ZM32.3438 28.073H38.4896V21.9272H32.3438V28.073ZM32.3438 18.5417H38.4896V12.448H32.3438V18.5417ZM21.0417 40.573H28.9583V9.42716H21.0417V40.573ZM21.0417 9.42716H28.9583H21.0417Z" fill="white"/>
</svg>
