<svg width="50" height="50" viewBox="0 0 50 50" fill="none" xmlns="http://www.w3.org/2000/svg">
<path d="M7.2915 41.9791C6.38873 41.9791 5.59011 41.6319 4.89567 40.9374C4.20123 40.243 3.854 39.4444 3.854 38.5416V30.4166C5.13873 30.1388 6.20643 29.4878 7.05713 28.4635C7.90782 27.4392 8.33317 26.2846 8.33317 24.9999C8.33317 23.7152 7.90782 22.552 7.05713 21.5103C6.20643 20.4687 5.13873 19.8263 3.854 19.5833V11.4583C3.854 10.5208 4.20123 9.71346 4.89567 9.03638C5.59011 8.35929 6.38873 8.02075 7.2915 8.02075H42.7082C43.6457 8.02075 44.453 8.35929 45.13 9.03638C45.8071 9.71346 46.1457 10.5208 46.1457 11.4583V19.5833C44.8609 19.8263 43.8019 20.4687 42.9686 21.5103C42.1353 22.552 41.7186 23.7152 41.7186 24.9999C41.7186 26.2846 42.1353 27.4392 42.9686 28.4635C43.8019 29.4878 44.8609 30.1388 46.1457 30.4166V38.5416C46.1457 39.4444 45.8071 40.243 45.13 40.9374C44.453 41.6319 43.6457 41.9791 42.7082 41.9791H7.2915ZM24.9998 29.427L28.2811 31.9791C28.6283 32.2569 28.9929 32.2655 29.3748 32.0051C29.7568 31.7447 29.8609 31.4062 29.6873 30.9895L28.3853 26.8749L31.6665 24.1666C31.979 23.8888 32.0745 23.5503 31.953 23.151C31.8314 22.7517 31.5623 22.552 31.1457 22.552H27.2394L25.8332 18.5416C25.6943 18.1596 25.4252 17.9687 25.0259 17.9687C24.6266 17.9687 24.3401 18.1596 24.1665 18.5416L22.7603 22.552H18.854C18.4373 22.552 18.1596 22.7517 18.0207 23.151C17.8818 23.5503 17.9859 23.8888 18.3332 24.1666L21.6144 26.8749L20.3123 30.9895C20.1734 31.4062 20.2863 31.7447 20.6509 32.0051C21.0155 32.2655 21.3714 32.2569 21.7186 31.9791L24.9998 29.427Z" fill="white"/>
</svg>
