<svg width="50" height="50" viewBox="0 0 50 50" fill="none" xmlns="http://www.w3.org/2000/svg">
<path d="M3.48942 42.1355C2.96859 42.1355 2.53456 41.9706 2.18734 41.6407C1.84011 41.3108 1.6665 40.8855 1.6665 40.3647V36.9272C1.6665 35.6424 1.99636 34.4792 2.65609 33.4376C3.31581 32.3959 4.23595 31.6147 5.4165 31.0938C7.95123 29.9827 10.2516 29.1841 12.3175 28.698C14.3835 28.2119 16.4929 27.9688 18.6457 27.9688C20.8679 27.9688 22.9946 28.2119 25.0259 28.698C27.0571 29.1841 29.3401 29.9827 31.8748 31.0938C33.0554 31.6147 33.9842 32.3959 34.6613 33.4376C35.3384 34.4792 35.6769 35.6424 35.6769 36.9272V40.3647C35.6769 40.8855 35.5033 41.3108 35.1561 41.6407C34.8089 41.9706 34.3922 42.1355 33.9061 42.1355H3.48942ZM37.6561 42.1355C38.038 42.0313 38.3419 41.8143 38.5675 41.4845C38.7932 41.1546 38.9061 40.7466 38.9061 40.2605V36.9272C38.9061 34.7397 38.3592 32.9254 37.2655 31.4845C36.1717 30.0435 34.7047 28.8369 32.8644 27.8647C35.1908 28.1424 37.387 28.5504 39.453 29.0886C41.5189 29.6268 43.2116 30.2258 44.5311 30.8855C45.6769 31.5452 46.5971 32.3959 47.2915 33.4376C47.9859 34.4792 48.3332 35.6598 48.3332 36.9792V40.3647C48.3332 40.8855 48.1596 41.3108 47.8123 41.6407C47.4651 41.9706 47.0311 42.1355 46.5103 42.1355H37.6561ZM18.6978 24.7917C16.3366 24.7917 14.4182 24.0452 12.9425 22.5522C11.4669 21.0591 10.729 19.1494 10.729 16.823C10.729 14.4619 11.4669 12.5435 12.9425 11.0678C14.4182 9.5921 16.3193 8.85425 18.6457 8.85425C21.0068 8.85425 22.9339 9.5921 24.4269 11.0678C25.92 12.5435 26.6665 14.4619 26.6665 16.823C26.6665 19.1494 25.92 21.0591 24.4269 22.5522C22.9339 24.0452 21.0241 24.7917 18.6978 24.7917V24.7917ZM37.8644 16.823C37.8644 19.1494 37.1266 21.0591 35.6509 22.5522C34.1752 24.0452 32.2568 24.7917 29.8957 24.7917C29.5137 24.7917 29.0884 24.7657 28.6196 24.7136C28.1509 24.6615 27.7255 24.5487 27.3436 24.3751C28.1769 23.507 28.8106 22.4306 29.2446 21.1459C29.6787 19.8612 29.8957 18.4202 29.8957 16.823C29.8957 15.2258 29.6787 13.8195 29.2446 12.6042C28.8106 11.389 28.1769 10.2605 27.3436 9.21883C27.7255 9.11467 28.1509 9.02786 28.6196 8.95842C29.0884 8.88897 29.5137 8.85425 29.8957 8.85425C32.2568 8.85425 34.1752 9.60078 35.6509 11.0938C37.1266 12.5869 37.8644 14.4966 37.8644 16.823V16.823ZM5.26025 38.5938H32.0832V36.9792C32.0832 36.4237 31.9182 35.8855 31.5884 35.3647C31.2585 34.8438 30.8505 34.4792 30.3644 34.2709C27.8991 33.1945 25.8332 32.4654 24.1665 32.0834C22.4998 31.7015 20.6596 31.5105 18.6457 31.5105C16.7012 31.5105 14.8696 31.7015 13.1509 32.0834C11.4321 32.4654 9.35748 33.1945 6.92692 34.2709C6.44081 34.4792 6.0415 34.8438 5.729 35.3647C5.4165 35.8855 5.26025 36.4237 5.26025 36.9792V38.5938ZM18.6457 21.3542C19.9651 21.3542 21.0589 20.9289 21.9269 20.0782C22.795 19.2275 23.229 18.1424 23.229 16.823C23.229 15.5036 22.8037 14.4098 21.953 13.5417C21.1023 12.6737 20.0172 12.2397 18.6978 12.2397C17.3783 12.2397 16.2846 12.6737 15.4165 13.5417C14.5484 14.4098 14.1144 15.5036 14.1144 16.823C14.1144 18.1424 14.5484 19.2275 15.4165 20.0782C16.2846 20.9289 17.3609 21.3542 18.6457 21.3542V21.3542Z" fill="white"/>
</svg>
