<svg width="50" height="50" viewBox="0 0 50 50" fill="none" xmlns="http://www.w3.org/2000/svg">
<path d="M25.0002 24.7917C22.6043 24.7917 20.6512 24.0365 19.1408 22.5261C17.6304 21.0157 16.8752 19.0626 16.8752 16.6667C16.8752 14.2709 17.6304 12.3178 19.1408 10.8074C20.6512 9.29696 22.6043 8.54175 25.0002 8.54175C27.396 8.54175 29.3491 9.29696 30.8595 10.8074C32.37 12.3178 33.1252 14.2709 33.1252 16.6667C33.1252 19.0626 32.37 21.0157 30.8595 22.5261C29.3491 24.0365 27.396 24.7917 25.0002 24.7917ZM38.4377 42.1355H11.5627C10.5904 42.1355 9.75711 41.7883 9.06266 41.0938C8.36822 40.3994 8.021 39.5661 8.021 38.5938V36.9272C8.021 35.5383 8.36822 34.349 9.06266 33.3595C9.75711 32.3699 10.6425 31.6147 11.7189 31.0938C14.08 30.0522 16.337 29.2709 18.4897 28.7501C20.6425 28.2292 22.8127 27.9688 25.0002 27.9688C27.1877 27.9688 29.3491 28.2379 31.4845 28.7761C33.62 29.3143 35.8682 30.1042 38.2293 31.1459C39.3404 31.632 40.2432 32.3699 40.9377 33.3595C41.6321 34.349 41.9793 35.5383 41.9793 36.9272V38.5938C41.9793 39.5661 41.6321 40.3994 40.9377 41.0938C40.2432 41.7883 39.4099 42.1355 38.4377 42.1355V42.1355ZM11.5627 38.5938H38.4377V36.9792C38.4377 36.4237 38.2727 35.8942 37.9429 35.3907C37.613 34.8872 37.205 34.514 36.7189 34.2709C34.5314 33.2292 32.5262 32.5088 30.7033 32.1095C28.8804 31.7101 26.9793 31.5105 25.0002 31.5105C23.021 31.5105 21.1026 31.7101 19.245 32.1095C17.3873 32.5088 15.3821 33.2292 13.2293 34.2709C12.7432 34.514 12.3439 34.8872 12.0314 35.3907C11.7189 35.8942 11.5627 36.4237 11.5627 36.9792V38.5938ZM25.0002 21.2501C26.3196 21.2501 27.4134 20.8161 28.2814 19.948C29.1495 19.0799 29.5835 17.9862 29.5835 16.6667C29.5835 15.3473 29.1495 14.2536 28.2814 13.3855C27.4134 12.5174 26.3196 12.0834 25.0002 12.0834C23.6807 12.0834 22.587 12.5174 21.7189 13.3855C20.8509 14.2536 20.4168 15.3473 20.4168 16.6667C20.4168 17.9862 20.8509 19.0799 21.7189 19.948C22.587 20.8161 23.6807 21.2501 25.0002 21.2501Z" fill="white"/>
</svg>
